<svg width="180" height="41" viewBox="0 0 180 41" fill="none" xmlns="http://www.w3.org/2000/svg">
<path d="M43.3711 30.4634C41.7933 30.4634 40.4531 30.1782 39.3505 29.6079C38.2479 29.0376 37.2594 28.2012 36.3849 27.0986L38.6091 24.8745C39.1604 25.6729 39.8162 26.3002 40.5766 26.7564C41.337 27.1937 42.3065 27.4123 43.4851 27.4123C44.5877 27.4123 45.4622 27.1842 46.1085 26.7279C46.7739 26.2717 47.1065 25.6444 47.1065 24.8459C47.1065 24.1806 46.9354 23.6388 46.5933 23.2206C46.2511 22.8024 45.7948 22.4602 45.2245 22.1941C44.6733 21.9089 44.0554 21.6618 43.3711 21.4527C42.7057 21.2246 42.0309 20.9774 41.3465 20.7113C40.6812 20.4261 40.0634 20.0745 39.4931 19.6562C38.9418 19.238 38.495 18.6962 38.1529 18.0309C37.8107 17.3655 37.6396 16.5196 37.6396 15.4931C37.6396 14.3145 37.9247 13.3164 38.495 12.499C39.0843 11.6626 39.8733 11.0257 40.8618 10.5885C41.8503 10.1513 42.9529 9.93268 44.1695 9.93268C45.4812 9.93268 46.6503 10.1893 47.6768 10.7026C48.7224 11.2158 49.5683 11.8717 50.2146 12.6701L47.9905 14.8943C47.4202 14.2479 46.8214 13.7727 46.194 13.4685C45.5857 13.1454 44.8824 12.9838 44.084 12.9838C43.0954 12.9838 42.316 13.1834 41.7457 13.5826C41.1944 13.9818 40.9188 14.5426 40.9188 15.265C40.9188 15.8733 41.0899 16.3675 41.4321 16.7477C41.7742 17.1089 42.221 17.4226 42.7723 17.6887C43.3426 17.9358 43.9604 18.1735 44.6257 18.4016C45.3101 18.6297 45.9849 18.8863 46.6503 19.1715C47.3346 19.4566 47.9525 19.8273 48.5038 20.2836C49.0741 20.7208 49.5303 21.2911 49.8725 21.9945C50.2146 22.6978 50.3857 23.5818 50.3857 24.6463C50.3857 26.4333 49.7489 27.8495 48.4752 28.8951C47.2206 29.9406 45.5192 30.4634 43.3711 30.4634ZM59.3338 30.4634C58.0031 30.4634 56.796 30.1497 55.7124 29.5224C54.6289 28.876 53.7639 28.0111 53.1176 26.9275C52.4903 25.844 52.1766 24.6368 52.1766 23.3061C52.1766 21.9755 52.4903 20.7778 53.1176 19.7133C53.7639 18.6487 54.6289 17.8028 55.7124 17.1754C56.796 16.5291 58.0031 16.2059 59.3338 16.2059C60.6835 16.2059 61.9002 16.5196 62.9837 17.1469C64.0673 17.7743 64.9227 18.6297 65.5501 19.7133C66.1964 20.7778 66.5196 21.9755 66.5196 23.3061C66.5196 24.6368 66.1964 25.844 65.5501 26.9275C64.9227 28.0111 64.0673 28.876 62.9837 29.5224C61.9002 30.1497 60.6835 30.4634 59.3338 30.4634ZM59.3338 27.4408C60.1132 27.4408 60.7976 27.2697 61.3869 26.9275C61.9952 26.5663 62.461 26.0721 62.7841 25.4448C63.1263 24.8174 63.2974 24.1046 63.2974 23.3061C63.2974 22.5077 63.1263 21.8044 62.7841 21.196C62.4419 20.5877 61.9762 20.1125 61.3869 19.7703C60.7976 19.4091 60.1132 19.2285 59.3338 19.2285C58.5734 19.2285 57.8891 19.4091 57.2808 19.7703C56.6915 20.1125 56.2257 20.5877 55.8835 21.196C55.5604 21.8044 55.3988 22.5077 55.3988 23.3061C55.3988 24.1046 55.5604 24.8174 55.8835 25.4448C56.2257 26.0721 56.6915 26.5663 57.2808 26.9275C57.8891 27.2697 58.5734 27.4408 59.3338 27.4408ZM74.7454 30.4634C73.5858 30.4634 72.5498 30.2067 71.6373 29.6935C70.7439 29.1802 70.0405 28.4768 69.5272 27.5834C69.033 26.6709 68.7858 25.6254 68.7858 24.4467V16.4911H71.9225V24.3042C71.9225 24.9695 72.027 25.5398 72.2361 26.0151C72.4642 26.4713 72.7874 26.823 73.2056 27.0701C73.6429 27.3172 74.1561 27.4408 74.7454 27.4408C75.6579 27.4408 76.3518 27.1747 76.827 26.6424C77.3213 26.0911 77.5684 25.3117 77.5684 24.3042V16.4911H80.705V24.4467C80.705 25.6444 80.4484 26.6994 79.9351 27.6119C79.4409 28.5054 78.747 29.2087 77.8536 29.722C76.9601 30.2162 75.924 30.4634 74.7454 30.4634ZM93.2402 30.1782V22.2796C93.2402 21.3671 92.9456 20.6162 92.3563 20.0269C91.786 19.4376 91.0446 19.143 90.1321 19.143C89.5238 19.143 88.982 19.276 88.5067 19.5422C88.0315 19.8083 87.6608 20.179 87.3947 20.6543C87.1285 21.1295 86.9955 21.6713 86.9955 22.2796L85.7693 21.5953C85.7693 20.5497 85.9974 19.6277 86.4537 18.8293C86.9099 18.0119 87.5372 17.3751 88.3357 16.9188C89.1531 16.4436 90.0656 16.2059 91.0731 16.2059C92.0996 16.2059 93.0121 16.4721 93.8105 17.0044C94.6089 17.5176 95.2363 18.1925 95.6925 19.0289C96.1487 19.8463 96.3768 20.7018 96.3768 21.5953V30.1782H93.2402ZM83.8588 30.1782V16.4911H86.9955V30.1782H83.8588ZM105.296 30.4634C104.06 30.4634 102.939 30.1497 101.931 29.5224C100.942 28.8951 100.154 28.0491 99.5643 26.9846C98.994 25.901 98.7088 24.6939 98.7088 23.3632C98.7088 22.0135 98.994 20.8063 99.5643 19.7418C100.154 18.6582 100.942 17.8028 101.931 17.1754C102.939 16.5291 104.06 16.2059 105.296 16.2059C106.341 16.2059 107.263 16.4341 108.062 16.8903C108.879 17.3275 109.525 17.9358 110.001 18.7153C110.476 19.4947 110.714 20.3786 110.714 21.3671V25.3022C110.714 26.2907 110.476 27.1747 110.001 27.9541C109.544 28.7335 108.908 29.3513 108.09 29.8075C107.273 30.2448 106.341 30.4634 105.296 30.4634ZM105.809 27.4978C106.588 27.4978 107.263 27.3267 107.834 26.9846C108.423 26.6234 108.879 26.1291 109.202 25.5018C109.525 24.8745 109.687 24.1521 109.687 23.3347C109.687 22.5172 109.525 21.7949 109.202 21.1675C108.879 20.5402 108.423 20.0555 107.834 19.7133C107.263 19.3521 106.588 19.1715 105.809 19.1715C105.049 19.1715 104.374 19.3521 103.784 19.7133C103.214 20.0555 102.758 20.5402 102.416 21.1675C102.093 21.7949 101.931 22.5172 101.931 23.3347C101.931 24.1521 102.093 24.8745 102.416 25.5018C102.758 26.1291 103.214 26.6234 103.784 26.9846C104.374 27.3267 105.049 27.4978 105.809 27.4978ZM112.624 30.1782H109.487V26.4998L110.029 23.1636L109.487 19.8558V9.64753H112.624V30.1782ZM123.433 30.4634C122.388 30.4634 121.456 30.2448 120.639 29.8075C119.822 29.3513 119.175 28.7335 118.7 27.9541C118.244 27.1747 118.016 26.2907 118.016 25.3022V21.3671C118.016 20.3786 118.253 19.4947 118.728 18.7153C119.204 17.9358 119.85 17.3275 120.667 16.8903C121.485 16.4341 122.407 16.2059 123.433 16.2059C124.669 16.2059 125.781 16.5291 126.77 17.1754C127.777 17.8028 128.566 18.6582 129.136 19.7418C129.726 20.8063 130.02 22.0135 130.02 23.3632C130.02 24.6939 129.726 25.901 129.136 26.9846C128.566 28.0491 127.777 28.8951 126.77 29.5224C125.781 30.1497 124.669 30.4634 123.433 30.4634ZM116.105 30.1782V9.64753H119.242V19.8558L118.7 23.1636L119.242 26.4998V30.1782H116.105ZM122.92 27.4978C123.681 27.4978 124.346 27.3267 124.916 26.9846C125.506 26.6234 125.962 26.1291 126.285 25.5018C126.627 24.8745 126.798 24.1521 126.798 23.3347C126.798 22.5172 126.627 21.7949 126.285 21.1675C125.962 20.5402 125.506 20.0555 124.916 19.7133C124.346 19.3521 123.681 19.1715 122.92 19.1715C122.16 19.1715 121.485 19.3521 120.896 19.7133C120.306 20.0555 119.85 20.5402 119.527 21.1675C119.204 21.7949 119.042 22.5172 119.042 23.3347C119.042 24.1521 119.204 24.8745 119.527 25.5018C119.85 26.1291 120.306 26.6234 120.896 26.9846C121.485 27.3267 122.16 27.4978 122.92 27.4978ZM138.919 30.4634C137.589 30.4634 136.381 30.1497 135.298 29.5224C134.214 28.876 133.349 28.0111 132.703 26.9275C132.076 25.844 131.762 24.6368 131.762 23.3061C131.762 21.9755 132.076 20.7778 132.703 19.7133C133.349 18.6487 134.214 17.8028 135.298 17.1754C136.381 16.5291 137.589 16.2059 138.919 16.2059C140.269 16.2059 141.486 16.5196 142.569 17.1469C143.653 17.7743 144.508 18.6297 145.135 19.7133C145.782 20.7778 146.105 21.9755 146.105 23.3061C146.105 24.6368 145.782 25.844 145.135 26.9275C144.508 28.0111 143.653 28.876 142.569 29.5224C141.486 30.1497 140.269 30.4634 138.919 30.4634ZM138.919 27.4408C139.699 27.4408 140.383 27.2697 140.972 26.9275C141.581 26.5663 142.046 26.0721 142.37 25.4448C142.712 24.8174 142.883 24.1046 142.883 23.3061C142.883 22.5077 142.712 21.8044 142.37 21.196C142.027 20.5877 141.562 20.1125 140.972 19.7703C140.383 19.4091 139.699 19.2285 138.919 19.2285C138.159 19.2285 137.474 19.4091 136.866 19.7703C136.277 20.1125 135.811 20.5877 135.469 21.196C135.146 21.8044 134.984 22.5077 134.984 23.3061C134.984 24.1046 135.146 24.8174 135.469 25.4448C135.811 26.0721 136.277 26.5663 136.866 26.9275C137.474 27.2697 138.159 27.4408 138.919 27.4408ZM156.992 30.1782L153.057 24.3897L152.487 23.8764L147.183 16.4911H150.975L154.483 21.5667L155.025 22.0515L160.756 30.1782H156.992ZM146.926 30.1782L152.458 22.5077L154.283 24.7604L150.576 30.1782H146.926ZM155.31 23.8194L153.456 21.5953L156.878 16.4911H160.499L155.31 23.8194ZM168.173 30.4634C166.938 30.4634 165.816 30.1497 164.808 29.5224C163.82 28.8951 163.031 28.0491 162.442 26.9846C161.871 25.901 161.586 24.6939 161.586 23.3632C161.586 22.0135 161.871 20.8063 162.442 19.7418C163.031 18.6582 163.82 17.8028 164.808 17.1754C165.816 16.5291 166.938 16.2059 168.173 16.2059C169.219 16.2059 170.141 16.4341 170.939 16.8903C171.757 17.3275 172.403 17.9358 172.878 18.7153C173.353 19.4947 173.591 20.3786 173.591 21.3671V25.3022C173.591 26.2907 173.353 27.1747 172.878 27.9541C172.422 28.7335 171.785 29.3513 170.968 29.8075C170.15 30.2448 169.219 30.4634 168.173 30.4634ZM168.686 27.4978C169.466 27.4978 170.141 27.3267 170.711 26.9846C171.3 26.6234 171.757 26.1291 172.08 25.5018C172.403 24.8745 172.565 24.1521 172.565 23.3347C172.565 22.5172 172.403 21.7949 172.08 21.1675C171.757 20.5402 171.3 20.0555 170.711 19.7133C170.141 19.3521 169.466 19.1715 168.686 19.1715C167.926 19.1715 167.251 19.3521 166.662 19.7133C166.092 20.0555 165.635 20.5402 165.293 21.1675C164.97 21.7949 164.808 22.5172 164.808 23.3347C164.808 24.1521 164.97 24.8745 165.293 25.5018C165.635 26.1291 166.092 26.6234 166.662 26.9846C167.251 27.3267 167.926 27.4978 168.686 27.4978ZM175.502 30.1782H172.365V26.4998L172.907 23.1636L172.365 19.8558V9.64753H175.502V30.1782Z" fill="black"/>
<path d="M5.80973 17.894C7.8687 16.4356 10.4193 15.197 13.2889 14.3591C21.6816 11.9089 29.6203 13.8101 31.0204 18.6059C32.4205 23.4017 26.7521 29.2751 18.3595 31.7254C17.6628 31.9288 16.9686 32.0997 16.2817 32.244C22.3943 29.6064 26.1923 24.9277 25.0418 20.9869C23.7201 16.4603 16.3702 14.6239 8.62504 16.8851C7.64295 17.1719 6.70207 17.5116 5.80973 17.894Z" fill="#2C58B4"/>
<path d="M5.70117 20.9579C6.75398 20.3931 7.92958 19.9086 9.19597 19.5389C14.9289 17.8652 20.3521 19.1639 21.3086 22.4398C22.2651 25.7159 18.3921 29.7291 12.659 31.4029C11.3907 31.7732 10.1375 31.9972 8.94461 32.0873C9.35749 32.0022 9.77435 31.9006 10.1924 31.7786C15.2954 30.2888 18.6991 26.5669 17.7938 23.4659C16.8885 20.365 12.0174 19.0587 6.91444 20.5484C6.4981 20.67 6.09347 20.8082 5.70117 20.9579Z" fill="#2C58B4"/>
<path d="M5.63355 23.7047C6.23047 23.401 6.8867 23.1383 7.58845 22.9334C11.1212 21.9021 14.463 22.7025 15.0524 24.7212C15.6418 26.7399 13.2556 29.2126 9.72289 30.2441C8.11465 30.7136 6.546 30.8025 5.25859 30.5707C6.301 30.6971 7.49909 30.6016 8.71885 30.2455C11.8634 29.3274 13.9599 27.0339 13.4021 25.1231C12.844 23.2124 9.84338 22.4077 6.69904 23.3256C6.32851 23.4338 5.97236 23.5612 5.63355 23.7047Z" fill="#2C58B4"/>
</svg>
