<svg width="180" height="40" viewBox="0 0 180 40" fill="none" xmlns="http://www.w3.org/2000/svg">
<path d="M43.3711 30.2851C41.7933 30.2851 40.4531 30 39.3505 29.4297C38.2479 28.8594 37.2594 28.023 36.3849 26.9204L38.6091 24.6962C39.1604 25.4947 39.8162 26.122 40.5766 26.5782C41.337 27.0154 42.3065 27.2341 43.4851 27.2341C44.5877 27.2341 45.4622 27.0059 46.1085 26.5497C46.7739 26.0935 47.1065 25.4661 47.1065 24.6677C47.1065 24.0024 46.9354 23.4606 46.5933 23.0424C46.2511 22.6242 45.7948 22.282 45.2245 22.0158C44.6733 21.7307 44.0554 21.4836 43.3711 21.2745C42.7057 21.0463 42.0309 20.7992 41.3465 20.5331C40.6812 20.2479 40.0634 19.8962 39.4931 19.478C38.9418 19.0598 38.495 18.518 38.1529 17.8527C37.8107 17.1873 37.6396 16.3414 37.6396 15.3149C37.6396 14.1362 37.9247 13.1382 38.495 12.3208C39.0843 11.4844 39.8733 10.8475 40.8618 10.4103C41.8503 9.97307 42.9529 9.75445 44.1695 9.75445C45.4812 9.75445 46.6503 10.0111 47.6768 10.5244C48.7224 11.0376 49.5683 11.6935 50.2146 12.4919L47.9905 14.716C47.4202 14.0697 46.8214 13.5945 46.194 13.2903C45.5857 12.9671 44.8824 12.8055 44.084 12.8055C43.0954 12.8055 42.316 13.0051 41.7457 13.4044C41.1944 13.8036 40.9188 14.3644 40.9188 15.0867C40.9188 15.695 41.0899 16.1893 41.4321 16.5695C41.7742 16.9307 42.221 17.2444 42.7723 17.5105C43.3426 17.7576 43.9604 17.9952 44.6257 18.2234C45.3101 18.4515 45.9849 18.7081 46.6503 18.9933C47.3346 19.2784 47.9525 19.6491 48.5038 20.1053C49.0741 20.5426 49.5303 21.1129 49.8725 21.8162C50.2146 22.5196 50.3857 23.4036 50.3857 24.4681C50.3857 26.255 49.7489 27.6713 48.4752 28.7168C47.2206 29.7624 45.5192 30.2851 43.3711 30.2851ZM59.3338 30.2851C58.0031 30.2851 56.796 29.9715 55.7124 29.3442C54.6289 28.6978 53.7639 27.8329 53.1176 26.7493C52.4903 25.6657 52.1766 24.4586 52.1766 23.1279C52.1766 21.7972 52.4903 20.5996 53.1176 19.535C53.7639 18.4705 54.6289 17.6246 55.7124 16.9972C56.796 16.3509 58.0031 16.0277 59.3338 16.0277C60.6835 16.0277 61.9002 16.3414 62.9837 16.9687C64.0673 17.596 64.9227 18.4515 65.5501 19.535C66.1964 20.5996 66.5196 21.7972 66.5196 23.1279C66.5196 24.4586 66.1964 25.6657 65.5501 26.7493C64.9227 27.8329 64.0673 28.6978 62.9837 29.3442C61.9002 29.9715 60.6835 30.2851 59.3338 30.2851ZM59.3338 27.2626C60.1132 27.2626 60.7976 27.0915 61.3869 26.7493C61.9952 26.3881 62.461 25.8939 62.7841 25.2665C63.1263 24.6392 63.2974 23.9263 63.2974 23.1279C63.2974 22.3295 63.1263 21.6261 62.7841 21.0178C62.4419 20.4095 61.9762 19.9343 61.3869 19.5921C60.7976 19.2309 60.1132 19.0503 59.3338 19.0503C58.5734 19.0503 57.8891 19.2309 57.2808 19.5921C56.6915 19.9343 56.2257 20.4095 55.8835 21.0178C55.5604 21.6261 55.3988 22.3295 55.3988 23.1279C55.3988 23.9263 55.5604 24.6392 55.8835 25.2665C56.2257 25.8939 56.6915 26.3881 57.2808 26.7493C57.8891 27.0915 58.5734 27.2626 59.3338 27.2626ZM74.7454 30.2851C73.5858 30.2851 72.5498 30.0285 71.6373 29.5152C70.7439 29.002 70.0405 28.2986 69.5272 27.4051C69.033 26.4927 68.7858 25.4471 68.7858 24.2685V16.3129H71.9225V24.1259C71.9225 24.7913 72.027 25.3616 72.2361 25.8368C72.4642 26.2931 72.7874 26.6448 73.2056 26.8919C73.6429 27.139 74.1561 27.2626 74.7454 27.2626C75.6579 27.2626 76.3518 26.9964 76.827 26.4642C77.3213 25.9129 77.5684 25.1335 77.5684 24.1259V16.3129H80.705V24.2685C80.705 25.4661 80.4484 26.5212 79.9351 27.4337C79.4409 28.3271 78.747 29.0305 77.8536 29.5438C76.9601 30.038 75.924 30.2851 74.7454 30.2851ZM93.2402 30V22.1014C93.2402 21.1889 92.9456 20.438 92.3563 19.8487C91.786 19.2594 91.0446 18.9648 90.1321 18.9648C89.5238 18.9648 88.982 19.0978 88.5067 19.364C88.0315 19.6301 87.6608 20.0008 87.3947 20.476C87.1285 20.9513 86.9955 21.4931 86.9955 22.1014L85.7693 21.417C85.7693 20.3715 85.9974 19.4495 86.4537 18.6511C86.9099 17.8337 87.5372 17.1968 88.3357 16.7406C89.1531 16.2653 90.0656 16.0277 91.0731 16.0277C92.0996 16.0277 93.0121 16.2939 93.8105 16.8261C94.6089 17.3394 95.2363 18.0143 95.6925 18.8507C96.1487 19.6681 96.3768 20.5236 96.3768 21.417V30H93.2402ZM83.8588 30V16.3129H86.9955V30H83.8588ZM105.296 30.2851C104.06 30.2851 102.939 29.9715 101.931 29.3442C100.942 28.7168 100.154 27.8709 99.5643 26.8063C98.994 25.7228 98.7088 24.5156 98.7088 23.185C98.7088 21.8352 98.994 20.6281 99.5643 19.5636C100.154 18.48 100.942 17.6246 101.931 16.9972C102.939 16.3509 104.06 16.0277 105.296 16.0277C106.341 16.0277 107.263 16.2558 108.062 16.7121C108.879 17.1493 109.525 17.7576 110.001 18.537C110.476 19.3164 110.714 20.2004 110.714 21.1889V25.124C110.714 26.1125 110.476 26.9964 110.001 27.7758C109.544 28.5552 108.908 29.1731 108.09 29.6293C107.273 30.0665 106.341 30.2851 105.296 30.2851ZM105.809 27.3196C106.588 27.3196 107.263 27.1485 107.834 26.8063C108.423 26.4451 108.879 25.9509 109.202 25.3236C109.525 24.6962 109.687 23.9739 109.687 23.1564C109.687 22.339 109.525 21.6166 109.202 20.9893C108.879 20.362 108.423 19.8772 107.834 19.535C107.263 19.1739 106.588 18.9933 105.809 18.9933C105.049 18.9933 104.374 19.1739 103.784 19.535C103.214 19.8772 102.758 20.362 102.416 20.9893C102.093 21.6166 101.931 22.339 101.931 23.1564C101.931 23.9739 102.093 24.6962 102.416 25.3236C102.758 25.9509 103.214 26.4451 103.784 26.8063C104.374 27.1485 105.049 27.3196 105.809 27.3196ZM112.624 30H109.487V26.3216L110.029 22.9853L109.487 19.6776V9.46931H112.624V30ZM123.433 30.2851C122.388 30.2851 121.456 30.0665 120.639 29.6293C119.822 29.1731 119.175 28.5552 118.7 27.7758C118.244 26.9964 118.016 26.1125 118.016 25.124V21.1889C118.016 20.2004 118.253 19.3164 118.728 18.537C119.204 17.7576 119.85 17.1493 120.667 16.7121C121.485 16.2558 122.407 16.0277 123.433 16.0277C124.669 16.0277 125.781 16.3509 126.77 16.9972C127.777 17.6246 128.566 18.48 129.136 19.5636C129.726 20.6281 130.02 21.8352 130.02 23.185C130.02 24.5156 129.726 25.7228 129.136 26.8063C128.566 27.8709 127.777 28.7168 126.77 29.3442C125.781 29.9715 124.669 30.2851 123.433 30.2851ZM116.105 30V9.46931H119.242V19.6776L118.7 22.9853L119.242 26.3216V30H116.105ZM122.92 27.3196C123.681 27.3196 124.346 27.1485 124.916 26.8063C125.506 26.4451 125.962 25.9509 126.285 25.3236C126.627 24.6962 126.798 23.9739 126.798 23.1564C126.798 22.339 126.627 21.6166 126.285 20.9893C125.962 20.362 125.506 19.8772 124.916 19.535C124.346 19.1739 123.681 18.9933 122.92 18.9933C122.16 18.9933 121.485 19.1739 120.896 19.535C120.306 19.8772 119.85 20.362 119.527 20.9893C119.204 21.6166 119.042 22.339 119.042 23.1564C119.042 23.9739 119.204 24.6962 119.527 25.3236C119.85 25.9509 120.306 26.4451 120.896 26.8063C121.485 27.1485 122.16 27.3196 122.92 27.3196ZM138.919 30.2851C137.589 30.2851 136.381 29.9715 135.298 29.3442C134.214 28.6978 133.349 27.8329 132.703 26.7493C132.076 25.6657 131.762 24.4586 131.762 23.1279C131.762 21.7972 132.076 20.5996 132.703 19.535C133.349 18.4705 134.214 17.6246 135.298 16.9972C136.381 16.3509 137.589 16.0277 138.919 16.0277C140.269 16.0277 141.486 16.3414 142.569 16.9687C143.653 17.596 144.508 18.4515 145.135 19.535C145.782 20.5996 146.105 21.7972 146.105 23.1279C146.105 24.4586 145.782 25.6657 145.135 26.7493C144.508 27.8329 143.653 28.6978 142.569 29.3442C141.486 29.9715 140.269 30.2851 138.919 30.2851ZM138.919 27.2626C139.699 27.2626 140.383 27.0915 140.972 26.7493C141.581 26.3881 142.046 25.8939 142.37 25.2665C142.712 24.6392 142.883 23.9263 142.883 23.1279C142.883 22.3295 142.712 21.6261 142.37 21.0178C142.027 20.4095 141.562 19.9343 140.972 19.5921C140.383 19.2309 139.699 19.0503 138.919 19.0503C138.159 19.0503 137.474 19.2309 136.866 19.5921C136.277 19.9343 135.811 20.4095 135.469 21.0178C135.146 21.6261 134.984 22.3295 134.984 23.1279C134.984 23.9263 135.146 24.6392 135.469 25.2665C135.811 25.8939 136.277 26.3881 136.866 26.7493C137.474 27.0915 138.159 27.2626 138.919 27.2626ZM156.992 30L153.057 24.2115L152.487 23.6982L147.183 16.3129H150.975L154.483 21.3885L155.025 21.8733L160.756 30H156.992ZM146.926 30L152.458 22.3295L154.283 24.5822L150.576 30H146.926ZM155.31 23.6412L153.456 21.417L156.878 16.3129H160.499L155.31 23.6412ZM168.173 30.2851C166.938 30.2851 165.816 29.9715 164.808 29.3442C163.82 28.7168 163.031 27.8709 162.442 26.8063C161.871 25.7228 161.586 24.5156 161.586 23.185C161.586 21.8352 161.871 20.6281 162.442 19.5636C163.031 18.48 163.82 17.6246 164.808 16.9972C165.816 16.3509 166.938 16.0277 168.173 16.0277C169.219 16.0277 170.141 16.2558 170.939 16.7121C171.757 17.1493 172.403 17.7576 172.878 18.537C173.353 19.3164 173.591 20.2004 173.591 21.1889V25.124C173.591 26.1125 173.353 26.9964 172.878 27.7758C172.422 28.5552 171.785 29.1731 170.968 29.6293C170.15 30.0665 169.219 30.2851 168.173 30.2851ZM168.686 27.3196C169.466 27.3196 170.141 27.1485 170.711 26.8063C171.3 26.4451 171.757 25.9509 172.08 25.3236C172.403 24.6962 172.565 23.9739 172.565 23.1564C172.565 22.339 172.403 21.6166 172.08 20.9893C171.757 20.362 171.3 19.8772 170.711 19.535C170.141 19.1739 169.466 18.9933 168.686 18.9933C167.926 18.9933 167.251 19.1739 166.662 19.535C166.092 19.8772 165.635 20.362 165.293 20.9893C164.97 21.6166 164.808 22.339 164.808 23.1564C164.808 23.9739 164.97 24.6962 165.293 25.3236C165.635 25.9509 166.092 26.4451 166.662 26.8063C167.251 27.1485 167.926 27.3196 168.686 27.3196ZM175.502 30H172.365V26.3216L172.907 22.9853L172.365 19.6776V9.46931H175.502V30Z" fill="white"/>
<path d="M5.80973 17.7158C7.8687 16.2574 10.4193 15.0187 13.2889 14.1809C21.6816 11.7307 29.6203 13.6319 31.0204 18.4277C32.4205 23.2235 26.7521 29.0969 18.3595 31.5472C17.6628 31.7506 16.9686 31.9215 16.2817 32.0658C22.3943 29.4282 26.1923 24.7495 25.0418 20.8087C23.7201 16.2821 16.3702 14.4457 8.62504 16.7069C7.64295 16.9936 6.70207 17.3334 5.80973 17.7158Z" fill="#2C58B4"/>
<path d="M5.70117 20.7797C6.75398 20.2149 7.92958 19.7304 9.19597 19.3607C14.9289 17.687 20.3521 18.9857 21.3086 22.2616C22.2651 25.5377 18.3921 29.5509 12.659 31.2247C11.3907 31.595 10.1375 31.819 8.94461 31.909C9.35749 31.824 9.77435 31.7224 10.1924 31.6004C15.2954 30.1105 18.6991 26.3887 17.7938 23.2877C16.8885 20.1868 12.0174 18.8805 6.91444 20.3702C6.4981 20.4918 6.09347 20.63 5.70117 20.7797Z" fill="#2C58B4"/>
<path d="M5.63355 23.5265C6.23047 23.2227 6.8867 22.9601 7.58845 22.7552C11.1212 21.7238 14.463 22.5243 15.0524 24.543C15.6418 26.5617 13.2556 29.0344 9.72289 30.0659C8.11465 30.5354 6.546 30.6243 5.25859 30.3925C6.301 30.5189 7.49909 30.4233 8.71885 30.0672C11.8634 29.1492 13.9599 26.8557 13.4021 24.9449C12.844 23.0342 9.84338 22.2295 6.69904 23.1474C6.32851 23.2556 5.97236 23.383 5.63355 23.5265Z" fill="#2C58B4"/>
</svg>
